<svg width="14" height="14" viewBox="0 0 14 14" fill="none" xmlns="http://www.w3.org/2000/svg">
<path d="M9.33333 4.66667H1.55556V1.55556H9.33333V4.66667ZM7 12.4444C6.38116 12.4444 5.78767 12.1986 5.35008 11.761C4.9125 11.3234 4.66667 10.7299 4.66667 10.1111C4.66667 9.49227 4.9125 8.89878 5.35008 8.46119C5.78767 8.02361 6.38116 7.77778 7 7.77778C7.61884 7.77778 8.21233 8.02361 8.64992 8.46119C9.0875 8.89878 9.33333 9.49227 9.33333 10.1111C9.33333 10.7299 9.0875 11.3234 8.64992 11.761C8.21233 12.1986 7.61884 12.4444 7 12.4444ZM10.8889 0H1.55556C0.692222 0 0 0.7 0 1.55556V12.4444C0 12.857 0.163888 13.2527 0.455612 13.5444C0.747335 13.8361 1.143 14 1.55556 14H12.4444C12.857 14 13.2527 13.8361 13.5444 13.5444C13.8361 13.2527 14 12.857 14 12.4444V3.11111L10.8889 0Z" fill="white"/>
</svg>
